<?xml version="1.0" encoding="iso-8859-1"?>
<!-- Generator: Adobe Illustrator 19.1.0, SVG Export Plug-In . SVG Version: 6.00 Build 0)  -->
<svg version="1.1" id="Capa_1" xmlns="http://www.w3.org/2000/svg" xmlns:xlink="http://www.w3.org/1999/xlink" x="0px" y="0px"
	 viewBox="0 0 531.818 531.818" style="enable-background:new 0 0 531.818 531.818;" xml:space="preserve">
<g>
	<g>
		<g>
			<circle cx="262.294" cy="149.655" r="149.655"/>
			<path d="M338.097,427.767c0-51.082,41.41-92.49,92.49-92.49c1.323,0,2.635,0.045,3.943,0.1
				c-21.247-41.729-45.704-75.837-45.704-75.837s-57.806,62.998-138.735,57.806c-80.929-5.191-115.612-57.806-115.612-57.806
				S7.304,375.151,53.549,467.641s300.593,57.807,300.593,57.807s19.505-1.461,43-11.451
				C362.599,500.588,338.097,467.05,338.097,427.767z"/>
			<path d="M476.832,416.206h-34.684v-34.685c0-6.384-5.177-11.562-11.563-11.562c-6.384,0-11.56,5.177-11.56,11.562v34.685h-34.684
				c-6.386,0-11.562,5.176-11.562,11.562s5.176,11.562,11.562,11.562h34.684v34.684c0,6.386,5.176,11.563,11.56,11.563
				c6.386,0,11.563-5.177,11.563-11.563V439.33h34.684c6.386,0,11.562-5.176,11.562-11.562S483.218,416.206,476.832,416.206z"/>
		</g>
	</g>
	<g>
	</g>
	<g>
	</g>
	<g>
	</g>
	<g>
	</g>
	<g>
	</g>
	<g>
	</g>
	<g>
	</g>
	<g>
	</g>
	<g>
	</g>
	<g>
	</g>
	<g>
	</g>
	<g>
	</g>
	<g>
	</g>
	<g>
	</g>
	<g>
	</g>
</g>
<g>
</g>
<g>
</g>
<g>
</g>
<g>
</g>
<g>
</g>
<g>
</g>
<g>
</g>
<g>
</g>
<g>
</g>
<g>
</g>
<g>
</g>
<g>
</g>
<g>
</g>
<g>
</g>
<g>
</g>
</svg>
