<?xml version="1.0" encoding="iso-8859-1"?>
<!-- Generator: Adobe Illustrator 18.0.0, SVG Export Plug-In . SVG Version: 6.00 Build 0)  -->
<!DOCTYPE svg PUBLIC "-//W3C//DTD SVG 1.1//EN" "http://www.w3.org/Graphics/SVG/1.1/DTD/svg11.dtd">
<svg version="1.1" id="Capa_1" xmlns="http://www.w3.org/2000/svg" xmlns:xlink="http://www.w3.org/1999/xlink" x="0px" y="0px"
	 viewBox="0 0 423.714 423.714" style="enable-background:new 0 0 423.714 423.714;" xml:space="preserve">
<g>
	<g>
		<polygon style="fill:none;" points="344.71,197.99 79.022,197.966 211.853,320.944 		"/>
		<polygon style="fill:none;" points="60.392,213.424 60.384,302.528 107.983,257.486 		"/>
		<path style="fill:none;" d="M220.003,346.102c-2.299,2.129-5.225,3.192-8.151,3.192c-2.926,0-5.852-1.065-8.152-3.194
			l-78.066-72.275l-65.253,61.75l-0.006,64.109l302.945,0.028l0.006-64.109l-65.242-61.762L220.003,346.102z"/>
		<polygon style="fill:none;" points="363.329,302.558 363.337,213.452 315.738,257.504 		"/>
		<path style="fill:#73D0F4;" d="M163.631,94.826l-0.003,32.96l96.489,0.01l0.002-32.96c0.002-6.627,5.375-12,12.002-11.999
			l23.193,0.002L211.882,26.48l-83.442,56.344l23.192,0.002C158.259,82.826,163.632,88.199,163.631,94.826z"/>
		<path style="fill:#3D6889;" d="M375.341,173.994l-326.945-0.031c-6.627,0-12,5.373-12.002,12l-0.02,225.72
			c-0.001,6.627,5.372,12,11.999,12.001l326.945,0.031c6.627,0,12-5.373,12.002-12l0.02-225.72
			C387.341,179.367,381.968,173.994,375.341,173.994z M344.71,197.99L211.853,320.944L79.022,197.966L344.71,197.99z
			 M60.392,213.424l47.591,44.062l-47.6,45.042L60.392,213.424z M363.32,399.712l-302.945-0.028l0.006-64.109l65.253-61.75
			L203.7,346.1c2.3,2.129,5.227,3.194,8.152,3.194c2.926,0,5.852-1.063,8.151-3.192l78.08-72.261l65.242,61.762L363.32,399.712z
			 M363.329,302.558l-47.592-45.054l47.6-44.052L363.329,302.558z"/>
		<path style="fill:#3D6889;" d="M89.229,106.819l50.401,0.005l-0.002,32.959c-0.002,6.627,5.371,12.001,11.998,12.001
			l120.489,0.011c6.627,0,12-5.372,12-11.999l0.004-32.959l50.4,0.005c0.006-0.001,0.014-0.001,0.022-0.001
			c6.627,0.001,12-5.371,12-11.998c0.002-4.338-2.301-8.139-5.75-10.248L218.601,2.056c-4.059-2.741-9.375-2.742-13.434-0.002
			L82.514,84.874c-4.371,2.952-6.303,8.412-4.76,13.455C79.298,103.374,83.954,106.819,89.229,106.819z M211.882,26.48
			l83.432,56.359l-23.193-0.002c-6.627-0.001-12,5.372-12.002,11.999l-0.002,32.96l-96.489-0.01l0.003-32.96
			c0.001-6.627-5.372-12-11.999-12.001l-23.192-0.002L211.882,26.48z"/>
	</g>
</g>
<g>
</g>
<g>
</g>
<g>
</g>
<g>
</g>
<g>
</g>
<g>
</g>
<g>
</g>
<g>
</g>
<g>
</g>
<g>
</g>
<g>
</g>
<g>
</g>
<g>
</g>
<g>
</g>
<g>
</g>
</svg>
